<svg xmlns="http://www.w3.org/2000/svg" xmlns:xlink="http://www.w3.org/1999/xlink"><symbol id="closed" viewBox="0 0 32.034 32.033"><g style="enable-background:new 0 0 32.034 32.033;">
<g>
	<g id="Close">
		<g>
			<path d="M21.679,16.017l9.18-9.172c0.758-0.755,1.175-1.76,1.175-2.828s-0.417-2.073-1.175-2.829
				c-0.754-0.755-1.762-1.171-2.83-1.171c-1.069,0-2.075,0.416-2.832,1.171l-9.182,9.172L6.834,1.188
				C6.078,0.432,5.072,0.016,4.001,0.016c-1.068,0-2.074,0.416-2.83,1.172c-1.561,1.56-1.562,4.097,0,5.657l9.182,9.172
				l-9.181,9.172c-1.562,1.562-1.562,4.099,0,5.658c0.756,0.755,1.762,1.171,2.831,1.171s2.075-0.416,2.831-1.172l9.181-9.172
				l9.181,9.171c0.757,0.755,1.762,1.172,2.83,1.172c1.07,0,2.076-0.416,2.832-1.172c1.562-1.562,1.562-4.099,0-5.657L21.679,16.017
				z M29.442,29.431c-0.756,0.755-2.074,0.756-2.832,0l-9.887-9.878c-0.392-0.393-1.025-0.393-1.416,0l-9.889,9.879
				c-0.757,0.755-2.075,0.755-2.832,0c-0.78-0.78-0.78-2.049,0-2.829l9.889-9.879c0.188-0.188,0.293-0.44,0.293-0.707
				c0-0.265-0.105-0.52-0.293-0.707l-9.89-9.879c-0.78-0.78-0.78-2.049,0-2.829c0.379-0.378,0.882-0.586,1.416-0.586
				c0.536,0,1.038,0.208,1.417,0.586l9.889,9.879c0.391,0.391,1.024,0.391,1.416,0l9.889-9.878c0.757-0.756,2.074-0.756,2.832-0.001
				c0.377,0.378,0.586,0.881,0.586,1.415s-0.209,1.036-0.586,1.414l-9.889,9.879c-0.392,0.391-0.392,1.022,0,1.414l9.889,9.878
				C30.224,27.382,30.224,28.65,29.442,29.431z"/>
		</g>
	</g>
</g>
<g>
</g>
<g>
</g>
<g>
</g>
<g>
</g>
<g>
</g>
<g>
</g>
<g>
</g>
<g>
</g>
<g>
</g>
<g>
</g>
<g>
</g>
<g>
</g>
<g>
</g>
<g>
</g>
<g>
</g>
</g></symbol><symbol id="opened" viewBox="0 0 32 32"><g style="enable-background:new 0 0 32 32;">
<g>
	<g id="menu">
		<g>
			<path d="M3,11h26c1.654,0,3-1.346,3-3s-1.346-3-3-3H3C1.346,5,0,6.346,0,8S1.346,11,3,11z M3,7h26c0.552,0,1,0.449,1,1
				c0,0.552-0.448,1-1,1H3C2.448,9,2,8.552,2,8C2,7.449,2.448,7,3,7z M29,13H3c-1.654,0-3,1.346-3,3c0,1.654,1.346,3,3,3h26
				c1.654,0,3-1.346,3-3C32,14.346,30.654,13,29,13z M29,17H3c-0.552,0-1-0.448-1-1s0.448-1,1-1h26c0.552,0,1,0.448,1,1
				S29.552,17,29,17z M29,21H3c-1.654,0-3,1.346-3,3s1.346,3,3,3h26c1.654,0,3-1.346,3-3S30.654,21,29,21z M29,25H3
				c-0.552,0-1-0.448-1-1s0.448-1,1-1h26c0.552,0,1,0.448,1,1S29.552,25,29,25z"/>
		</g>
	</g>
</g>
<g>
</g>
<g>
</g>
<g>
</g>
<g>
</g>
<g>
</g>
<g>
</g>
<g>
</g>
<g>
</g>
<g>
</g>
<g>
</g>
<g>
</g>
<g>
</g>
<g>
</g>
<g>
</g>
<g>
</g>
</g></symbol></svg>